<svg xmlns="http://www.w3.org/2000/svg" version="1.1" xmlns:xlink="http://www.w3.org/1999/xlink" viewBox="0 0 200 200"><rect width="200" height="200" fill="url('#gradient')"></rect><defs><linearGradient id="gradient" gradientTransform="rotate(360 0.5 0.5)"><stop offset="0%" stop-color="#0a0a0b"></stop><stop offset="100%" stop-color="#17173c"></stop></linearGradient></defs><g><g fill="#8c52ff" transform="matrix(4.415257048092869,0,0,4.415257048092869,20.45656304720228,130.9526714388213)" stroke="#e1e1e3" stroke-width="0.3"><path d="M6.74-4.46L6.74-14.22L10.16-14.22L10.16-4.46Q10.16-3.11 9.53-2.04Q8.90-0.98 7.77-0.39Q6.64 0.20 5.25 0.20L5.25 0.20Q2.93 0.20 1.64-0.98Q0.35-2.15 0.35-4.30L0.35-4.30L3.79-4.30Q3.79-3.32 4.13-2.88Q4.46-2.44 5.25-2.44L5.25-2.44Q5.97-2.44 6.35-2.97Q6.74-3.51 6.74-4.46L6.74-4.46ZM14.20-3.19L14.20-3.19Q14.98-3.19 15.50-2.73Q16.02-2.27 16.02-1.54Q16.02-0.82 15.50-0.36Q14.98 0.11 14.20 0.11L14.20 0.11Q13.41 0.11 12.90-0.36Q12.38-0.83 12.38-1.54Q12.38-2.26 12.90-2.72Q13.41-3.19 14.20-3.19ZM27.27 0L26.44-2.66L21.74-2.66L20.92 0L17.26 0L22.47-14.22L25.69-14.22L30.95 0L27.27 0ZM24.08-10.23L22.56-5.30L25.62-5.30L24.08-10.23ZM33.87-3.19L33.87-3.19Q34.65-3.19 35.17-2.73Q35.68-2.27 35.68-1.54Q35.68-0.82 35.17-0.36Q34.65 0.11 33.87 0.11L33.87 0.11Q33.08 0.11 32.56-0.36Q32.05-0.83 32.05-1.54Q32.05-2.26 32.56-2.72Q33.08-3.19 33.87-3.19Z"></path></g></g></svg>